<svg xmlns="http://www.w3.org/2000/svg" viewBox="0 0 128 128" role="img" aria-labelledby="title desc">
  <title id="title">Bee icon</title>
  <desc id="desc">Stylized bee illustration in amber and charcoal tones.</desc>
  <g fill="none" fill-rule="evenodd">
    <ellipse cx="43" cy="42" rx="19" ry="14" fill="#F6D27A" opacity=".9"/>
    <ellipse cx="84" cy="42" rx="19" ry="14" fill="#F6D27A" opacity=".9"/>
    <path d="M54 34c0-9 8-16 18-16s18 7 18 16" fill="#E8F3FF" opacity=".7"/>
    <path d="M36 71c0-19 13-34 28-34s28 15 28 34-13 35-28 35S36 90 36 71Z" fill="#F4B315"/>
    <path d="M49 46c4-4 9-6 15-6 6 0 11 2 15 6" stroke="#241E24" stroke-linecap="round" stroke-width="6"/>
    <path d="M43 61h42M40 76h48M47 91h34" stroke="#241E24" stroke-linecap="round" stroke-width="8"/>
    <circle cx="31" cy="68" r="10" fill="#241E24"/>
    <circle cx="27" cy="65" r="2.5" fill="#F4B315"/>
    <path d="M26 55c-4-7-4-15 1-22M35 56c2-8 7-14 14-18" stroke="#241E24" stroke-linecap="round" stroke-width="4"/>
    <path d="M87 102c7 4 15 5 23 2" stroke="#241E24" stroke-dasharray="4 8" stroke-linecap="round" stroke-width="4"/>
  </g>
</svg>
